<mxfile host="app.diagrams.net" modified="2023-04-06T18:41:13.510Z" agent="Mozilla/5.0 (Windows NT 10.0; Win64; x64) AppleWebKit/537.36 (KHTML, like Gecko) Chrome/110.0.0.0 YaBrowser/23.3.0.2246 Yowser/2.5 Safari/537.36" etag="yYeHHr5wuSgZfhRRSxkp" version="21.1.4" type="github">
  <diagram name="Страница 1" id="lY3FXg9a8nMghc8TCFdd">
    <mxGraphModel dx="1446" dy="846" grid="1" gridSize="10" guides="1" tooltips="1" connect="1" arrows="1" fold="1" page="1" pageScale="1" pageWidth="827" pageHeight="1169" math="0" shadow="0">
      <root>
        <mxCell id="0" />
        <mxCell id="1" parent="0" />
        <mxCell id="J73AXFIZa4UlH_KG2iZx-1" value="" style="shape=image;verticalLabelPosition=bottom;labelBackgroundColor=default;verticalAlign=top;aspect=fixed;imageAspect=0;image=https://google-developer-training.github.io/android-developer-fundamentals-course-concepts-v2/images/1-0-c-introduction-to-android/dg_android_stack.png;" vertex="1" parent="1">
          <mxGeometry x="10" y="20" width="520" height="451" as="geometry" />
        </mxCell>
        <mxCell id="J73AXFIZa4UlH_KG2iZx-11" value="" style="group;fillColor=none;" vertex="1" connectable="0" parent="1">
          <mxGeometry x="40" y="524" width="300" height="336" as="geometry" />
        </mxCell>
        <mxCell id="J73AXFIZa4UlH_KG2iZx-2" value="Системные приложения" style="rounded=0;whiteSpace=wrap;html=1;fontFamily=Helvetica;fontSize=14;fontStyle=1;labelBackgroundColor=none;fillColor=#1155cc;fontColor=#ffffff;strokeColor=none;" vertex="1" parent="J73AXFIZa4UlH_KG2iZx-11">
          <mxGeometry width="144.44444444444446" height="60" as="geometry" />
        </mxCell>
        <mxCell id="J73AXFIZa4UlH_KG2iZx-3" value="Пользовательские приложения" style="rounded=0;whiteSpace=wrap;html=1;fontFamily=Helvetica;fontSize=14;fontStyle=1;labelBackgroundColor=none;fillColor=#1155cc;fontColor=#ffffff;strokeColor=none;" vertex="1" parent="J73AXFIZa4UlH_KG2iZx-11">
          <mxGeometry x="155.55555555555557" width="144.44444444444446" height="60" as="geometry" />
        </mxCell>
        <mxCell id="J73AXFIZa4UlH_KG2iZx-4" value="Фреймворк Java API" style="rounded=0;whiteSpace=wrap;html=1;fontFamily=Helvetica;fontSize=14;fontStyle=1;fontColor=#ffffff;labelBackgroundColor=none;fillColor=#38761d;strokeColor=none;" vertex="1" parent="J73AXFIZa4UlH_KG2iZx-11">
          <mxGeometry y="66" width="300" height="60" as="geometry" />
        </mxCell>
        <mxCell id="J73AXFIZa4UlH_KG2iZx-6" value="Нативные библиотеки C/C++" style="rounded=0;whiteSpace=wrap;html=1;fontFamily=Helvetica;fontSize=14;fontStyle=1;fontColor=#ffffff;labelBackgroundColor=none;fillColor=#351c75;strokeColor=none;" vertex="1" parent="J73AXFIZa4UlH_KG2iZx-11">
          <mxGeometry y="136" width="144.44444444444446" height="60" as="geometry" />
        </mxCell>
        <mxCell id="J73AXFIZa4UlH_KG2iZx-7" value="Cреда выполнения Android" style="rounded=0;whiteSpace=wrap;html=1;fontFamily=Helvetica;fontSize=14;fontStyle=1;fontColor=#ffffff;labelBackgroundColor=none;strokeColor=none;fillColor=#783f04;" vertex="1" parent="J73AXFIZa4UlH_KG2iZx-11">
          <mxGeometry x="155.55555555555557" y="136" width="144.44444444444446" height="60" as="geometry" />
        </mxCell>
        <mxCell id="J73AXFIZa4UlH_KG2iZx-9" value="Уровень аппаратной абстракции" style="rounded=0;whiteSpace=wrap;html=1;fontFamily=Helvetica;fontSize=14;fontStyle=1;fontColor=#ffffff;labelBackgroundColor=none;strokeColor=none;fillColor=#783f04;" vertex="1" parent="J73AXFIZa4UlH_KG2iZx-11">
          <mxGeometry y="206" width="300" height="60" as="geometry" />
        </mxCell>
        <mxCell id="J73AXFIZa4UlH_KG2iZx-10" value="Ядро Linux" style="rounded=0;whiteSpace=wrap;html=1;fontFamily=Helvetica;fontSize=14;fontStyle=1;fontColor=#ffffff;labelBackgroundColor=none;strokeColor=none;fillColor=#434343;" vertex="1" parent="J73AXFIZa4UlH_KG2iZx-11">
          <mxGeometry y="276" width="300" height="60" as="geometry" />
        </mxCell>
      </root>
    </mxGraphModel>
  </diagram>
</mxfile>
